#!OML:ASF H:\Terrain\Patient Classification 1\Walking\liu\liu.ASF
:FULLY-SPECIFIED
:DEGREES
33
root 7.92048 15.9106 -26.8597 7.62072 -6.15258 2.41179
lowerback -3.22077 2.55906 -6.25881
upperback -0.90757 3.60659 0.597799
thorax 0.442653 1.81233 4.23677
lowerneck -23.2032 -6.47125 -13.6496
upperneck 18.2383 -8.52809 17.3364
head 11.1814 -2.88343 7.28963
rclavicle -6.49032e-014 -1.78906e-014
rhumerus -36.0275 15.6027 -87.1557
rradius 45.5433
rwrist -26.4309
rhand -31.3929 -25.2152
rfingers 7.12502
rthumb -4.66256 -55.1439
lclavicle -6.49032e-014 -1.78906e-014
lhumerus -44.1688 10.6965 76.7334
lradius 17.0644
lwrist -9.97935
lhand -13.3396 -26.0749
lfingers 7.12502
lthumb 12.7658 3.51478
rfemur -5.6143 -3.88289 15.2153
rtibia 62.656
rfoot 10.0943 -9.94729
rtoes -10.1104
lfemur -35.2702 7.58649 -28.7115
ltibia 37.6931
lfoot -11.0337 4.86557
ltoes 1.82423
34
root 7.93469 15.9588 -26.6566 7.72948 -6.00007 2.09336
lowerback -3.18326 2.47773 -5.76532
upperback -0.911506 3.47957 0.660743
thorax 0.458836 1.74805 4.02131
lowerneck -23.3954 -6.33995 -13.6534
upperneck 18.4376 -8.37441 17.4573
head 11.2706 -2.78991 7.37917
rclavicle 9.50191e-014 1.19271e-014
rhumerus -36.4067 15.172 -87.3149
rradius 44.6028
rwrist -25.8955
rhand -30.8665 -23.9891
rfingers 7.12502
rthumb -4.15425 -53.9284
lclavicle 9.50191e-014 1.19271e-014
lhumerus -43.0518 9.34092 78.3207
lradius 17.9014
lwrist -7.90451
lhand -13.8285 -25.8087
lfingers 7.12502
lthumb 12.2944 3.80988
rfemur -7.71293 -4.07817 15.8213
rtibia 64.6957
rfoot 8.24423 -11.2219
rtoes -9.87965
lfemur -34.3256 7.6154 -28.3901
ltibia 37.3677
lfoot -11.4886 4.66147
ltoes 2.82733
35
root 7.94854 16.0076 -26.4504 7.75375 -5.74026 1.88248
lowerback -3.1829 2.28436 -5.38981
upperback -0.894289 3.20954 0.769903
thorax 0.521343 1.61068 3.91862
lowerneck -23.5388 -6.31055 -13.4981
upperneck 18.6337 -8.28799 17.0405
head 11.3192 -2.77697 7.20988
rclavicle 3.11595e-014 1.59028e-015
rhumerus -36.7985 15.1122 -87.5166
rradius 43.5537
rwrist -25.3638
rhand -30.5064 -23.3833
rfingers 7.12502
rthumb -3.80647 -53.329
lclavicle 3.11595e-014 1.59028e-015
lhumerus -42.0338 8.33105 79.6887
lradius 18.6602
lwrist -6.23562
lhand -14.0264 -25.5727
lfingers 7.12502
lthumb 12.1036 4.0572
rfemur -9.60435 -4.31062 16.3048
rtibia 66.4821
rfoot 5.99132 -12.3791
rtoes -8.25222
lfemur -33.1991 7.50851 -28.1601
ltibia 36.8779
lfoot -11.8087 4.50363
ltoes 2.12704
36
root 7.95973 16.0565 -26.2467 7.853 -5.33235 1.57795
lowerback -3.22904 2.11486 -4.92983
upperback -0.930589 2.96945 0.916609
thorax 0.55152 1.49055 3.80776
lowerneck -23.5587 -6.33415 -13.5267
upperneck 18.7806 -8.24941 16.7416
head 11.3516 -2.79297 7.10912
rclavicle -9.29318e-015 -6.36111e-015
rhumerus -37.3829 14.9948 -87.6767
rradius 42.6496
rwrist -24.8713
rhand -30.7818 -24.0707
rfingers 7.12502
rthumb -4.07239 -54.0115
lclavicle -9.29318e-015 -6.36111e-015
lhumerus -41.0073 6.31427 81.5203
lradius 19.5367
lwrist -3.76597
lhand -14.2728 -25.4902
lfingers 7.12502
lthumb 11.866 4.15353
rfemur -11.5959 -4.52392 16.9934
rtibia 67.9773
rfoot 3.98538 -13.3135
rtoes -7.96305
lfemur -32.1039 7.31666 -27.8201
ltibia 36.2427
lfoot -12.386 4.37102
ltoes 1.44481
37
root 7.96923 16.1073 -26.0436 7.83029 -4.99256 1.59608
lowerback -3.10102 2.03409 -4.80746
upperback -1.00041 2.8499 0.940079
thorax 0.425051 1.43551 3.75287
lowerneck -23.4769 -6.31636 -13.5984
upperneck 18.9545 -8.19455 16.6047
head 11.3845 -2.791 7.08553
rclavicle -1.93567e-014 4.77083e-015
rhumerus -38.1406 14.6583 -87.7759
rradius 41.8732
rwrist -24.4508
rhand -30.9998 -24.9206
rfingers 7.12502
rthumb -4.28295 -54.8573
lclavicle -1.93567e-014 4.77083e-015
lhumerus -40.1226 4.04574 83.2688
lradius 20.4234
lwrist -1.37263
lhand -14.8697 -25.7148
lfingers 7.12502
lthumb 11.2904 3.96129
rfemur -13.4935 -4.68535 17.3122
rtibia 69.1847
rfoot 2.32304 -13.774
rtoes -7.67868
lfemur -30.8286 7.05058 -27.7841
ltibia 35.5059
lfoot -12.9943 4.2943
ltoes 1.75587
38
root 7.97763 16.1523 -25.8377 7.73524 -4.66447 1.5348
lowerback -2.92746 1.90737 -4.64587
upperback -1.01648 2.66725 0.960071
thorax 0.336312 1.3465 3.67096
lowerneck -24.3068 -6.30853 -12.919
upperneck 19.9156 -8.21853 15.7196
head 11.8204 -2.80694 6.6564
rclavicle 3.20043e-014 6.36111e-015
rhumerus -38.8152 14.3933 -87.9657
rradius 41.0329
rwrist -23.9874
rhand -31.1702 -24.8616
rfingers 7.12502
rthumb -4.44747 -54.7949
lclavicle 3.20043e-014 6.36111e-015
lhumerus -39.1776 2.79797 84.3992
lradius 21.0988
lwrist -0.0684096
lhand -15.0988 -26.361
lfingers 7.12502
lthumb 11.0695 3.32709
rfemur -15.1732 -4.8046 17.7271
rtibia 70.0761
rfoot 1.11408 -13.7818
rtoes -7.89173
lfemur -29.4186 6.69611 -27.6417
ltibia 34.6397
lfoot -13.4241 4.44538
ltoes 0.613133
